HIERARCHY
ROOT Hips
{
	OFFSET -3.958830 18.904000 13.208200
	CHANNELS 6 Xposition Yposition Zposition Zrotation Yrotation Xrotation 
	JOINT LHipJoint
	{
		OFFSET 0.000000 0.000000 0.000000
		CHANNELS 3 Zrotation Yrotation Xrotation
		JOINT LeftUpLeg
		{
			OFFSET 1.800000 -1.400000 0.085000
			CHANNELS 3 Zrotation Yrotation Xrotation
			JOINT LeftLeg
			{
				OFFSET 2.215000 -6.000000 0.000000
				CHANNELS 3 Zrotation Yrotation Xrotation
				JOINT LeftFoot
				{
					OFFSET 2.500000 -6.900000 0.000000
					CHANNELS 3 Zrotation Yrotation Xrotation
					JOINT LeftToeBase
					{
						OFFSET 0.200000 -0.500000 1.950000
						CHANNELS 3 Zrotation Yrotation Xrotation
						End Site
						{
							OFFSET 0.000000 0.000000 0.000000
						}
					}
				}
			}
		}
	}
	JOINT RHipJoint
	{
		OFFSET 0.000000 0.000000 0.000000
		CHANNELS 3 Zrotation Yrotation Xrotation
		JOINT RightUpLeg
		{
			OFFSET -1.800000 -1.400000 0.085000
			CHANNELS 3 Zrotation Yrotation Xrotation
			JOINT RightLeg
			{
				OFFSET -2.215000 -6.000000 0.000000
				CHANNELS 3 Zrotation Yrotation Xrotation
				JOINT RightFoot
				{
					OFFSET -2.500000 -6.900000 0.000000
					CHANNELS 3 Zrotation Yrotation Xrotation
					JOINT RightToeBase
					{
						OFFSET -0.200000 -0.500000 1.950000
						CHANNELS 3 Zrotation Yrotation Xrotation
						End Site
						{
							OFFSET 0.000000 0.000000 0.000000
						}
					}
				}
			}
		}
	}
	JOINT LowerBack
	{
		OFFSET 0.000000 0.000000 0.000000
		CHANNELS 3 Zrotation Yrotation Xrotation
		JOINT Spine
		{
			OFFSET -0.087000 1.940000 -0.288900
			CHANNELS 3 Zrotation Yrotation Xrotation
			JOINT Spine1
			{
				OFFSET 0.000000 1.950000 0.060000
				CHANNELS 3 Zrotation Yrotation Xrotation
				JOINT Neck
				{
					OFFSET 0.000000 0.000000 0.000000
					CHANNELS 3 Zrotation Yrotation Xrotation
					JOINT Neck1
					{
						OFFSET 0.000000 1.600000 0.340000
						CHANNELS 3 Zrotation Yrotation Xrotation
						JOINT Head
						{
							OFFSET 0.000000 1.667000 -0.240000
							CHANNELS 3 Zrotation Yrotation Xrotation
							End Site
							{
								OFFSET 0.000000 0.000000 0.000000
							}
						}
					}
				}
				JOINT LeftShoulder
				{
					OFFSET 0.000000 0.000000 0.000000
					CHANNELS 3 Zrotation Yrotation Xrotation
					JOINT LeftArm
					{
						OFFSET 2.700000 1.550000 -0.730000
						CHANNELS 3 Zrotation Yrotation Xrotation
						JOINT LeftForeArm
						{
							OFFSET 5.450000 0.000000 0.000000
							CHANNELS 3 Zrotation Yrotation Xrotation
							JOINT LeftHand
							{
								OFFSET 3.450000 0.000000 0.000000
								CHANNELS 3 Zrotation Yrotation Xrotation
								JOINT LeftHandIndex1
								{
									OFFSET 0.750000 0.000000 0.000000
									CHANNELS 3 Zrotation Yrotation Xrotation
									End Site
									{
										OFFSET 0.000000 0.000000 0.000000
									}
								}
							}
						}
					}
				}
				JOINT RightShoulder
				{
					OFFSET 0.000000 0.000000 0.000000
					CHANNELS 3 Zrotation Yrotation Xrotation
					JOINT RightArm
					{
						OFFSET -2.700000 1.550000 -0.730000
						CHANNELS 3 Zrotation Yrotation Xrotation
						JOINT RightForeArm
						{
							OFFSET -5.450000 0.000000 0.000000
							CHANNELS 3 Zrotation Yrotation Xrotation
							JOINT RightHand
							{
								OFFSET -3.450000 0.000000 0.000000
								CHANNELS 3 Zrotation Yrotation Xrotation
								JOINT RightHandIndex1
								{
									OFFSET -0.750000 0.000000 0.000000
									CHANNELS 3 Zrotation Yrotation Xrotation
									End Site
									{
										OFFSET 0.000000 0.000000 0.000000
									}
								}
							}
						}
					}
				}
			}
		}
	}
}
MOTION
Frames: 9
Frame Time: 0.016667
1.695170 17.168910 -11.828330 5.686510 0.829270 -1.846216 -15.186784 12.211568 4.079176 28.544917 -0.222867 -10.251307 -25.564564 20.579742 30.881170 1.055459 10.468541 1.043249 -0.003530 -0.126210 -0.221430 18.247419 -10.251697 2.737475 -15.228711 0.697773 -16.704345 4.684448 -2.979236 0.484572 -0.172440 -2.900284 3.334194 -0.133760 0.492900 0.202050 -3.558652 -0.949357 -8.668297 0.763279 -2.332247 18.482292 -5.878425 0.101722 9.476203 -0.102417 -5.517316 -15.851404 -12.728500 -3.847489 38.990803 3.197780 -11.317230 -9.001620 -6.914339 -17.939439 9.315859 -12.263519 -0.511474 -0.043604 9.390704 -0.780424 -0.585223 -4.002821 2.655133 0.380060 0.061630 -0.017090 0.196890 7.680476 25.385038 10.643010 19.483646 12.342778 -5.620587 11.554756 40.906465 3.539093 2.112964 -1.229166 -0.136270 0.348050 0.211650 0.165310 
1.656410 17.178290 -11.811810 6.210227 0.648674 -1.531831 -15.230179 12.026658 4.293108 29.222888 -0.213890 -11.244815 -27.934901 22.522814 32.372039 1.205806 11.037302 0.880233 -0.011400 -0.135980 -0.224220 18.247120 -10.150515 2.663092 -15.550477 0.710503 -17.121003 4.745275 -3.001099 0.773985 -0.156363 -2.888501 3.334123 -0.130530 0.508450 0.199530 -3.504163 -0.908213 -8.715025 0.046196 -2.128547 18.181525 -6.033432 0.248444 9.379415 -0.051356 -5.400042 -15.650837 -12.367414 -3.893291 38.364838 2.924450 -11.130350 -8.692730 -6.459000 -17.595486 9.213648 -12.183616 -0.538778 -0.088864 9.650101 -0.737856 -0.590267 -4.023359 2.649445 0.372980 0.075550 -0.030310 0.197720 7.094088 25.049447 10.434974 19.244562 12.528745 -5.707659 11.705462 42.020925 3.706774 2.098085 -1.245492 -0.149020 0.355940 0.216110 0.163020 
1.579480 17.204050 -11.775390 7.252178 0.388525 -0.959761 -15.325470 11.675525 4.719147 30.791589 -0.153923 -13.323249 -32.511789 26.736010 35.424087 1.513468 12.114168 0.591695 -0.023510 -0.149710 -0.227370 18.240049 -9.934171 2.515951 -16.229788 0.724904 -17.763201 4.992258 -3.064684 1.335236 -0.124918 -2.886280 3.332176 -0.121200 0.536890 0.190740 -3.375918 -0.874174 -8.805037 -1.404133 -1.726551 17.631833 -6.051555 0.498242 9.234531 0.008649 -5.237462 -15.309268 -11.796194 -4.000807 37.074683 2.305060 -10.794810 -7.995770 -5.494127 -16.913883 9.003277 -12.119799 -0.721461 -0.094222 9.520995 -0.908050 -0.598333 -4.057831 2.634248 0.352770 0.104210 -0.059120 0.199810 5.980795 24.419542 10.090009 18.456516 12.493917 -5.979634 12.087870 44.236848 4.070601 2.068116 -1.286254 -0.171870 0.370430 0.220470 0.158850 
1.486770 17.243040 -11.737220 8.366581 0.307016 -0.820004 -15.412551 11.300695 5.203498 32.714505 -0.051888 -15.639795 -37.765513 32.150634 38.953045 1.850930 13.189090 0.315882 -0.018250 -0.145570 -0.209480 18.239961 -9.736892 2.355587 -16.944724 0.655447 -17.866504 5.146215 -3.171239 1.893556 -0.119944 -2.902205 3.313317 -0.109260 0.531410 0.185360 -3.272885 -0.799246 -8.938779 -2.745085 -1.400075 17.862229 -6.328921 0.791313 8.875878 0.193440 -5.124010 -15.055763 -11.486362 -4.214027 36.563928 1.786290 -10.654590 -8.263570 -4.769907 -16.236704 8.718385 -11.602800 -0.837056 -0.165342 9.497857 -1.517039 -0.637924 -4.064247 2.614247 0.356810 0.105830 -0.060550 0.191380 4.850103 23.896034 9.840393 17.313340 12.120052 -6.437841 12.682893 46.681216 4.571237 2.039778 -1.320827 -0.182840 0.378660 0.221090 0.146750 
1.394790 17.282050 -11.695030 9.465042 0.027792 -0.629794 -15.491523 10.975135 5.638397 34.547693 0.337465 -17.890378 -43.425755 38.024896 41.623407 2.139150 13.967479 0.146560 -0.020390 -0.148020 -0.197510 18.238833 -9.562814 2.211711 -17.730905 0.644083 -18.059922 5.379116 -3.310768 2.602020 -0.109715 -2.927321 3.292373 -0.103040 0.531700 0.187860 -3.178569 -0.726925 -9.051027 -3.854945 -1.021794 17.962806 -6.547701 1.144929 8.520505 0.432113 -5.162332 -14.844338 -11.450540 -4.434370 36.049437 0.787520 -10.484890 -8.220530 -4.098362 -15.530761 8.424959 -11.305969 -0.875704 -0.265157 9.622925 -2.361449 -0.681464 -4.078143 2.599432 0.350500 0.118000 -0.065420 0.181140 3.690089 23.503710 9.627477 15.914849 11.675273 -6.849190 13.437755 49.011593 5.177275 2.009566 -1.361984 -0.188270 0.382780 0.227430 0.137660 
1.310220 17.316030 -11.647870 10.435613 -0.025172 -0.408978 -15.550598 10.657374 6.024900 36.425355 0.842905 -20.338337 -49.125209 44.226141 43.787745 2.337837 14.445358 0.068656 -0.024120 -0.152910 -0.201710 18.255407 -9.403106 2.090639 -18.456427 0.635348 -17.826709 5.425443 -3.391911 2.779374 -0.107177 -2.990997 3.267027 -0.091440 0.553980 0.192560 -3.137977 -0.622004 -9.151572 -4.533399 -0.913611 17.946363 -7.100664 1.330432 8.176761 0.592199 -5.078475 -14.410408 -11.122571 -4.459862 35.480263 0.417020 -10.333110 -8.161290 -3.430436 -14.664042 8.099700 -10.755170 -0.809109 -0.317704 9.448740 -3.312257 -0.735942 -4.098648 2.582658 0.346240 0.139900 -0.079900 0.180780 2.624861 22.720689 9.142131 14.669583 11.813894 -6.971060 14.108360 50.992397 5.782982 1.977219 -1.397168 -0.203110 0.397420 0.240800 0.132970 
1.224760 17.349360 -11.600280 11.254978 0.013573 -0.191306 -15.589971 10.380405 6.343499 38.410129 1.631249 -22.657766 -55.189194 50.458014 44.865879 2.447298 14.510088 0.098700 -0.033040 -0.156110 -0.209220 18.281276 -9.269195 2.013694 -19.161499 0.685399 -17.440477 5.761612 -3.478929 2.799155 -0.106821 -3.068721 3.240666 -0.084870 0.564880 0.180460 -3.138128 -0.492860 -9.258937 -4.853658 -0.840708 18.011384 -7.771220 1.566428 7.749796 0.679273 -5.111533 -14.125635 -11.094282 -4.489227 35.186389 0.350810 -10.360260 -8.065120 -2.698112 -13.894759 7.791981 -10.383271 -0.800988 -0.438519 9.436683 -4.545435 -0.774083 -4.097978 2.567371 0.338030 0.149000 -0.093850 0.175350 1.653336 22.078384 8.866146 14.051558 11.570500 -7.310324 14.308757 53.202616 6.154458 1.951341 -1.430994 -0.214680 0.411090 0.250350 0.130980 
1.142050 17.374050 -11.546040 12.270812 0.351273 0.183056 -15.630478 10.190599 6.532724 39.957553 2.633104 -24.932846 -62.116787 56.056449 44.159576 2.455372 14.189095 0.227958 -0.031920 -0.149620 -0.212400 18.293503 -9.153059 1.975851 -20.077356 0.746273 -17.055251 5.894103 -3.503620 2.493076 -0.115524 -3.165631 3.199713 -0.072440 0.577480 0.179870 -3.110777 -0.411791 -9.319517 -5.475676 -0.598659 17.729355 -8.223643 1.861604 7.404549 0.735785 -4.992619 -13.789304 -10.772503 -4.771135 34.654600 0.201000 -10.467020 -7.856470 -2.243465 -13.253515 7.372326 -9.702239 -1.554852 -0.432115 9.536607 -4.694021 -0.795276 -4.121225 2.560775 0.323860 0.162040 -0.104780 0.178130 1.037298 21.425512 8.659082 13.527465 11.100293 -7.513742 14.569357 54.969671 6.482578 1.932530 -1.476224 -0.219490 0.416880 0.251650 0.133980 
1.054510 17.386360 -11.486240 13.428554 0.364214 0.750853 -15.676588 10.157256 6.521864 41.049178 4.113535 -26.932300 -70.709775 60.915456 41.126125 2.376040 13.535534 0.441852 -0.008420 -0.118510 -0.192330 18.283192 -9.088817 1.977711 -20.808575 0.873309 -16.893785 5.648484 -3.431649 2.015955 -0.131772 -3.219654 3.172435 -0.049190 0.576370 0.185670 -3.037452 -0.387020 -9.288583 -6.674048 -0.045751 16.933620 -8.295449 2.191250 6.997492 0.812674 -4.700711 -13.269724 -10.134668 -5.080171 34.117058 -0.225370 -10.281510 -7.907480 -2.003346 -12.354180 6.842536 -8.810436 -2.227341 -0.392029 9.237301 -5.044815 -0.799752 -4.132242 2.557597 0.313180 0.171730 -0.101150 0.186800 0.621238 20.404689 8.267022 13.290781 11.032531 -7.385502 15.024634 56.558799 6.930015 1.923537 -1.522296 -0.215730 0.417940 0.234590 0.133770 
